<?xml version="1.0" encoding="UTF-8"?>
<svg xmlns="http://www.w3.org/2000/svg" viewBox="0 0 1200 900" role="img" aria-labelledby="title desc">
<title id="title">Topology vs Runtime Execution Tree</title>
<desc id="desc">NodeId describes logical topology; ExecutionId identifies concrete runtime work.</desc>
<rect width="1200" height="900" fill="#f6f8fb"/>
<rect x="28" y="24" width="1144" height="852" rx="22" fill="#ffffff" stroke="#d0d7de" stroke-width="2"/>
<text x="600" y="66" text-anchor="middle" font-family="system-ui,Segoe UI,sans-serif" font-size="29" font-weight="700" fill="#1a1a2e">Topology vs Runtime Execution Tree</text>
<text x="600" y="96" text-anchor="middle" font-family="system-ui,Segoe UI,sans-serif" font-size="15" fill="#526579">NodeId describes logical topology; ExecutionId identifies concrete runtime work.</text>
<rect x="90" y="125" width="470" height="34" rx="9" fill="#f0f4f8" stroke="#d0d7de" stroke-width="1.5"/>
<text x="325.0" y="148" text-anchor="middle" font-family="system-ui,Segoe UI,sans-serif" font-size="14" font-weight="700" fill="#1a1a2e">ORCHESTRATION DEFINITION — logical/static</text>
<rect x="640" y="125" width="470" height="34" rx="9" fill="#f0f4f8" stroke="#d0d7de" stroke-width="1.5"/>
<text x="875.0" y="148" text-anchor="middle" font-family="system-ui,Segoe UI,sans-serif" font-size="14" font-weight="700" fill="#1a1a2e">RUNTIME EXECUTION TREE — concrete instances</text>
<rect x="205" y="200" width="150" height="62" rx="12" fill="#fff8e1" stroke="#b88900" stroke-width="2"/>
<text x="280.0" y="228.0" text-anchor="middle" font-family="system-ui,Segoe UI,sans-serif" font-size="16" font-weight="700" fill="#1a1a2e">Node A</text>
<text x="280.0" y="251.0" text-anchor="middle" font-family="system-ui,Segoe UI,sans-serif" font-size="13" fill="#526579">NodeId</text>
<rect x="75" y="330" width="150" height="62" rx="12" fill="#fff8e1" stroke="#b88900" stroke-width="2"/>
<text x="150.0" y="358.0" text-anchor="middle" font-family="system-ui,Segoe UI,sans-serif" font-size="16" font-weight="700" fill="#1a1a2e">Node B</text>
<text x="150.0" y="381.0" text-anchor="middle" font-family="system-ui,Segoe UI,sans-serif" font-size="13" fill="#526579">NodeId</text>
<rect x="335" y="330" width="150" height="62" rx="12" fill="#fff8e1" stroke="#b88900" stroke-width="2"/>
<text x="410.0" y="358.0" text-anchor="middle" font-family="system-ui,Segoe UI,sans-serif" font-size="16" font-weight="700" fill="#1a1a2e">Node C</text>
<text x="410.0" y="381.0" text-anchor="middle" font-family="system-ui,Segoe UI,sans-serif" font-size="13" fill="#526579">NodeId</text>
<rect x="205" y="470" width="150" height="62" rx="12" fill="#fff8e1" stroke="#b88900" stroke-width="2"/>
<text x="280.0" y="498.0" text-anchor="middle" font-family="system-ui,Segoe UI,sans-serif" font-size="16" font-weight="700" fill="#1a1a2e">Node D</text>
<text x="280.0" y="521.0" text-anchor="middle" font-family="system-ui,Segoe UI,sans-serif" font-size="13" fill="#526579">NodeId</text>
<line x1="280" y1="262" x2="225" y2="330" stroke="#334155" stroke-width="2"/>
<path d="M225,330 L225.9,320.0 L234.6,327.1 Z" fill="#334155"/>
<line x1="280" y1="262" x2="485" y2="330" stroke="#334155" stroke-width="2"/>
<path d="M485,330 L475.4,332.7 L478.9,322.1 Z" fill="#334155"/>
<line x1="225" y1="392" x2="280" y2="470" stroke="#334155" stroke-width="2"/>
<path d="M280,470 L270.7,466.4 L279.8,460.0 Z" fill="#334155"/>
<line x1="485" y1="392" x2="280" y2="470" stroke="#334155" stroke-width="2"/>
<path d="M280,470 L285.8,461.8 L289.7,472.3 Z" fill="#334155"/>
<text x="325" y="575" text-anchor="middle" font-family="system-ui,Segoe UI,sans-serif" font-size="14" font-weight="700" fill="#b88900">One NodeId may instantiate many Executions</text>
<rect x="805" y="200" width="140" height="62" rx="12" fill="#f3e8ff" stroke="#7c3aed" stroke-width="2"/>
<text x="875.0" y="228.0" text-anchor="middle" font-family="system-ui,Segoe UI,sans-serif" font-size="16" font-weight="700" fill="#1a1a2e">E1</text>
<text x="875.0" y="251.0" text-anchor="middle" font-family="system-ui,Segoe UI,sans-serif" font-size="13" fill="#526579">ExecutionId · root</text>
<rect x="685" y="330" width="140" height="62" rx="12" fill="#f3e8ff" stroke="#7c3aed" stroke-width="2"/>
<text x="755.0" y="358.0" text-anchor="middle" font-family="system-ui,Segoe UI,sans-serif" font-size="16" font-weight="700" fill="#1a1a2e">E2</text>
<text x="755.0" y="381.0" text-anchor="middle" font-family="system-ui,Segoe UI,sans-serif" font-size="13" fill="#526579">ExecutionId · Node B</text>
<rect x="925" y="330" width="140" height="62" rx="12" fill="#f3e8ff" stroke="#7c3aed" stroke-width="2"/>
<text x="995.0" y="358.0" text-anchor="middle" font-family="system-ui,Segoe UI,sans-serif" font-size="16" font-weight="700" fill="#1a1a2e">E3</text>
<text x="995.0" y="381.0" text-anchor="middle" font-family="system-ui,Segoe UI,sans-serif" font-size="13" fill="#526579">ExecutionId · Node C</text>
<rect x="655" y="480" width="140" height="62" rx="12" fill="#f3e8ff" stroke="#7c3aed" stroke-width="2"/>
<text x="725.0" y="508.0" text-anchor="middle" font-family="system-ui,Segoe UI,sans-serif" font-size="16" font-weight="700" fill="#1a1a2e">E4</text>
<text x="725.0" y="531.0" text-anchor="middle" font-family="system-ui,Segoe UI,sans-serif" font-size="13" fill="#526579">ExecutionId · Node D</text>
<rect x="805" y="480" width="140" height="62" rx="12" fill="#f3e8ff" stroke="#7c3aed" stroke-width="2"/>
<text x="875.0" y="508.0" text-anchor="middle" font-family="system-ui,Segoe UI,sans-serif" font-size="16" font-weight="700" fill="#1a1a2e">E5</text>
<text x="875.0" y="531.0" text-anchor="middle" font-family="system-ui,Segoe UI,sans-serif" font-size="13" fill="#526579">ExecutionId · Node D</text>
<rect x="955" y="480" width="140" height="62" rx="12" fill="#f3e8ff" stroke="#7c3aed" stroke-width="2"/>
<text x="1025.0" y="508.0" text-anchor="middle" font-family="system-ui,Segoe UI,sans-serif" font-size="16" font-weight="700" fill="#1a1a2e">E6</text>
<text x="1025.0" y="531.0" text-anchor="middle" font-family="system-ui,Segoe UI,sans-serif" font-size="13" fill="#526579">ExecutionId · Node D</text>
<line x1="875" y1="262" x2="755" y2="330" stroke="#334155" stroke-width="2"/>
<path d="M755,330 L759.5,321.1 L765.0,330.8 Z" fill="#334155"/>
<line x1="875" y1="262" x2="995" y2="330" stroke="#334155" stroke-width="2"/>
<path d="M995,330 L985.0,330.8 L990.5,321.1 Z" fill="#334155"/>
<line x1="755" y1="392" x2="725" y2="480" stroke="#334155" stroke-width="2"/>
<path d="M725,480 L722.4,470.3 L733.0,473.9 Z" fill="#334155"/>
<line x1="755" y1="392" x2="875" y2="480" stroke="#334155" stroke-width="2"/>
<path d="M875,480 L865.0,479.6 L871.6,470.6 Z" fill="#334155"/>
<line x1="995" y1="392" x2="1025" y2="480" stroke="#334155" stroke-width="2"/>
<path d="M1025,480 L1017.0,473.9 L1027.6,470.3 Z" fill="#334155"/>
<text x="875" y="575" text-anchor="middle" font-family="system-ui,Segoe UI,sans-serif" font-size="14" font-weight="700" fill="#7c3aed">parent_execution_id defines the one canonical runtime tree</text>
<line x1="600" y1="125" x2="600" y2="700" stroke="#d0d7de" stroke-width="2" stroke-dasharray="7 5"/>
<rect x="180" y="665" width="840" height="90" rx="12" fill="#fdecea" stroke="#c62828" stroke-width="2"/>
<text x="600.0" y="707.0" text-anchor="middle" font-family="system-ui,Segoe UI,sans-serif" font-size="18" font-weight="700" fill="#1a1a2e">DO NOT CONFLATE</text>
<text x="600.0" y="730.0" text-anchor="middle" font-family="system-ui,Segoe UI,sans-serif" font-size="15" fill="#526579">NodeId = where work is defined · ExecutionId = one concrete schedulable/governable work instance</text>
<text x="600" y="858" text-anchor="middle" font-family="system-ui,Segoe UI,sans-serif" font-size="13" fill="#526579">Canonical conceptual architecture — see UNIFIED_EXECUTION_ARCHITECTURE.md for normative semantics.</text>
</svg>